HIERARCHY
ROOT root
{
	OFFSET 0.000000 0.000000 0.000000
	CHANNELS 6 Xposition Yposition Zposition Zrotation Yrotation Xrotation
	JOINT lhip
	{
		OFFSET 0.058581 -0.082280 -0.017664
		CHANNELS 3 Zrotation Yrotation Xrotation
		JOINT lknee
		{
			OFFSET 0.043451 -0.386469 0.008037
			CHANNELS 3 Zrotation Yrotation Xrotation
			JOINT lankle
			{
				OFFSET -0.014790 -0.426874 -0.037428
				CHANNELS 3 Zrotation Yrotation Xrotation
				JOINT ltoe
				{
					OFFSET 0.041054 -0.060286 0.122042
					CHANNELS 3 Zrotation Yrotation Xrotation
					End Site
					{
						OFFSET 0.000000 0.000000 0.000000
					}
				}
			}
		}
	}
	JOINT rhip
	{
		OFFSET -0.060310 -0.090513 -0.013543
		CHANNELS 3 Zrotation Yrotation Xrotation
		JOINT rknee
		{
			OFFSET -0.043257 -0.383688 -0.004843
			CHANNELS 3 Zrotation Yrotation Xrotation
			JOINT rankle
			{
				OFFSET 0.019056 -0.420046 -0.034562
				CHANNELS 3 Zrotation Yrotation Xrotation
				JOINT rtoe
				{
					OFFSET -0.034840 -0.062106 0.130323
					CHANNELS 3 Zrotation Yrotation Xrotation
					End Site
					{
						OFFSET 0.000000 0.000000 0.000000
					}
				}
			}
		}
	}
	JOINT lowerback
	{
		OFFSET 0.004439 0.124404 -0.038385
		CHANNELS 3 Zrotation Yrotation Xrotation
		JOINT upperback
		{
			OFFSET 0.004488 0.137956 0.026820
			CHANNELS 3 Zrotation Yrotation Xrotation
			JOINT chest
			{
				OFFSET -0.002265 0.056032 0.002855
				CHANNELS 3 Zrotation Yrotation Xrotation
				JOINT lowerneck
				{
					OFFSET -0.013390 0.211636 -0.033468
					CHANNELS 3 Zrotation Yrotation Xrotation
					JOINT upperneck
					{
						OFFSET 0.010113 0.088937 0.050410
						CHANNELS 3 Zrotation Yrotation Xrotation
						End Site
						{
							OFFSET 0.000000 0.000000 0.000000
						}
					}
				}
				JOINT lclavicle
				{
					OFFSET 0.071702 0.114000 -0.018898
					CHANNELS 3 Zrotation Yrotation Xrotation
					JOINT lshoulder
					{
						OFFSET 0.122921 0.045205 -0.019046
						CHANNELS 3 Zrotation Yrotation Xrotation
						JOINT lelbow
						{
							OFFSET 0.255332 -0.015649 -0.022946
							CHANNELS 3 Zrotation Yrotation Xrotation
							JOINT lwrist
							{
								OFFSET 0.265709 0.012698 -0.007375
								CHANNELS 3 Zrotation Yrotation Xrotation
								End Site
								{
									OFFSET 0.000000 0.000000 0.000000
								}
							}
						}
					}
				}
				JOINT rclavicle
				{
					OFFSET -0.082954 0.112472 -0.023707
					CHANNELS 3 Zrotation Yrotation Xrotation
					JOINT rshoulder
					{
						OFFSET -0.113228 0.046853 -0.008472
						CHANNELS 3 Zrotation Yrotation Xrotation
						JOINT relbow
						{
							OFFSET -0.260127 -0.014369 -0.031269
							CHANNELS 3 Zrotation Yrotation Xrotation
							JOINT rwrist
							{
								OFFSET -0.269108 0.006794 -0.006027
								CHANNELS 3 Zrotation Yrotation Xrotation
								End Site
								{
									OFFSET 0.000000 0.000000 0.000000
								}
							}
						}
					}
				}
			}
		}
	}
}
MOTION
Frames: 5
Frame Time: 0.033333
-0.005696 0.230486 0.981398 87.667850 -0.091337 84.587455 5.859794 0.980883 -9.355617 -3.993867 -4.535628 30.177994 -2.141529 7.501799 -16.867747 0.000000 -0.000000 0.000000 -2.589920 -0.948896 -11.773086 -1.937201 6.079697 31.584136 3.142688 -4.953516 -15.135849 0.000000 -0.000000 0.000000 -0.704926 1.238875 3.592660 -2.620721 -6.773271 -4.820172 1.370639 2.194224 -1.141131 -8.076571 -4.660501 3.842537 11.397936 0.581117 -21.194198 38.538795 -36.156298 -36.208209 -18.303608 -57.118664 -23.962980 50.414530 -19.196113 -59.434668 22.228426 12.069968 -34.375305 -41.344615 32.067630 -32.780373 12.706525 58.785878 -32.447590 -44.103777 24.086454 -38.509396 -6.761540 -4.234645 -9.530389 
-0.005762 0.230093 0.982019 87.647139 -0.120309 84.904289 5.748740 0.780716 -9.543668 -3.739837 -4.387989 29.835027 -2.070847 7.433655 -16.656688 0.000000 -0.000000 0.000000 -2.571582 -1.044451 -12.086035 -1.993465 6.014513 31.514202 3.244090 -4.826445 -14.891488 0.000000 -0.000000 0.000000 -0.719332 1.355908 3.590228 -2.593915 -6.758241 -4.703512 1.327305 2.343749 -1.283475 -7.974041 -4.774423 1.739929 11.560201 0.179463 -22.305791 38.385282 -36.253647 -36.353373 -17.438153 -56.803798 -24.356559 54.107011 -21.953563 -60.496224 22.672060 11.450549 -33.375737 -40.852294 32.311450 -32.621082 12.539139 58.410210 -32.659404 -49.050971 26.584469 -40.765445 -8.082915 -3.600675 -7.715236 
-0.006068 0.229579 0.982821 87.604082 -0.109237 85.084390 5.737083 0.730613 -9.709834 -3.536021 -4.172395 29.771333 -2.188520 7.216615 -16.570240 0.000000 -0.000000 0.000000 -2.440767 -0.873847 -12.180514 -2.129360 6.070744 31.201370 3.250726 -4.757130 -15.029080 0.000000 -0.000000 0.000000 -0.747445 1.438442 3.930046 -2.476234 -6.726015 -4.864270 1.289211 2.377662 -1.273920 -7.781551 -4.548755 -0.608586 11.564437 -0.327563 -23.035825 38.224255 -36.470403 -36.459494 -16.490383 -56.355792 -24.624720 58.453430 -24.566323 -61.603013 22.547611 9.935418 -32.654627 -40.279874 32.614239 -32.701116 12.354228 58.364998 -32.764594 -54.439710 28.814817 -43.375799 -8.919564 -2.871093 -6.257153 
-0.006921 0.229255 0.983362 87.776789 -0.129505 85.395514 5.742995 0.550428 -10.123001 -3.348499 -3.778251 29.706919 -2.171165 6.748407 -16.548951 0.000000 -0.000000 0.000000 -2.445373 -0.853849 -12.597776 -2.234266 5.790464 31.374122 3.350616 -4.663432 -14.844240 0.000000 -0.000000 0.000000 -0.792856 1.482977 4.395056 -2.385031 -6.733053 -4.881867 1.242390 2.310233 -1.620283 -7.391742 -4.634970 -3.026562 11.452338 -0.710829 -23.480859 37.785101 -37.067951 -36.413095 -14.869148 -56.095750 -25.600788 63.456572 -27.216867 -63.246105 22.047868 8.005797 -31.474422 -39.732904 33.222906 -32.523716 11.650774 58.179356 -33.308889 -60.735603 30.884395 -46.366506 -9.548269 -1.503441 -4.490516 
-0.008063 0.228738 0.983592 88.084739 -0.103491 85.778771 5.806356 0.434806 -10.762895 -3.174406 -3.514658 29.846672 -2.326656 6.137774 -16.484709 0.000000 -0.000000 0.000000 -2.356495 -0.695811 -13.028684 -2.453452 5.471121 31.349639 3.418343 -4.720882 -14.838620 0.000000 -0.000000 0.000000 -0.866650 1.459313 4.821288 -2.264539 -6.842589 -4.967944 1.164267 2.231857 -1.895220 -6.958090 -4.525724 -5.399586 11.348136 -1.332864 -23.908106 37.452072 -37.873824 -36.482319 -13.217263 -55.833305 -26.673587 68.500677 -29.591701 -64.236833 21.749365 5.576703 -29.771642 -39.245302 33.988651 -32.452586 11.032790 58.104757 -33.917479 -67.067349 32.644387 -49.273953 -10.750881 0.101549 -3.168157 
